<svg width="14" height="14" viewBox="0 0 14 14" fill="none" xmlns="http://www.w3.org/2000/svg">
<g id="bar-chart-01">
<path id="union-1" fill-rule="evenodd" clip-rule="evenodd" d="M4.66681 2.9165C4.66681 1.95001 5.45031 1.1665 6.41681 1.1665H7.58348C8.54997 1.1665 9.33348 1.95001 9.33348 2.9165V3.59942C9.51593 3.53493 9.71227 3.49984 9.91681 3.49984H11.0835C12.05 3.49984 12.8335 4.28334 12.8335 5.24984V11.0832C12.8335 12.0497 12.05 12.8332 11.0835 12.8332H2.91681C1.95031 12.8332 1.16681 12.0497 1.16681 11.0832V7.58317C1.16681 6.61667 1.95031 5.83317 2.91681 5.83317H4.08348C4.28801 5.83317 4.48435 5.86826 4.66681 5.93275V2.9165ZM5.83348 11.6665H8.16681V2.9165C8.16681 2.59434 7.90564 2.33317 7.58348 2.33317H6.41681C6.09464 2.33317 5.83348 2.59434 5.83348 2.9165V11.6665ZM9.33348 11.6665H11.0835C11.4056 11.6665 11.6668 11.4053 11.6668 11.0832V5.24984C11.6668 4.92767 11.4056 4.6665 11.0835 4.6665H9.91681C9.59464 4.6665 9.33348 4.92767 9.33348 5.24984V11.6665ZM4.66681 11.6665V7.58317C4.66681 7.26101 4.40564 6.99984 4.08348 6.99984H2.91681C2.59464 6.99984 2.33348 7.261 2.33348 7.58317V11.0832C2.33348 11.4053 2.59464 11.6665 2.91681 11.6665H4.66681Z" fill="#71717A"/>
</g>
</svg>
