<svg width="21" height="20" viewBox="0 0 21 20" fill="none" xmlns="http://www.w3.org/2000/svg">
<g id="counter-clockwise-clock">
<path id="Vector" d="M4.81551 15.6851C6.20063 17.0946 8.14566 18.0225 10.5 18.0225C15.392 18.0225 18.5224 14.0134 18.5224 10.0001C18.5224 5.9869 15.392 1.97778 10.5 1.97778C6.49471 1.97778 4.53717 4.95724 3.74784 6.43245L3.26387 7.33698H4.28973H6.56667C6.5893 7.33698 6.60764 7.35532 6.60764 7.37795C6.60764 7.40057 6.5893 7.41892 6.56667 7.41892H3.08951L3.82345 6.12514C4.71446 4.55451 6.69078 1.89583 10.5 1.89583C15.4432 1.89583 18.6043 5.9478 18.6043 10.0001C18.6043 14.0525 15.4432 18.1045 10.5 18.1045C8.12284 18.1045 6.157 17.1669 4.75709 15.7426C4.00546 14.9778 3.41712 14.0729 3.01571 13.0974L3.01569 13.0974C3.00711 13.0765 3.01705 13.0526 3.03799 13.044L3.03801 13.044C3.05892 13.0353 3.08286 13.0453 3.09147 13.0662L3.09148 13.0663C3.489 14.0321 4.07152 14.9281 4.81551 15.6851ZM4.81551 15.6851L5.25386 15.2543M4.81551 15.6851L5.25386 15.2543M5.25386 15.2543C6.52802 16.5509 8.31695 17.4079 10.5 17.4079C15.0105 17.4079 17.9078 13.7177 17.9078 10.0001C17.9078 6.28262 15.0105 2.59237 10.5 2.59237C7.33092 2.59237 5.55622 4.63304 4.64315 6.10781L2.44737 13.3313C2.30957 12.9965 2.46929 12.6134 2.8041 12.4756C3.1389 12.3378 3.52202 12.4975 3.65981 12.8324C4.02802 13.727 4.56716 14.5556 5.25386 15.2543ZM10.541 9.98322V9.72865V6.06685C10.541 6.04422 10.5226 6.02588 10.5 6.02588C10.4774 6.02588 10.459 6.04422 10.459 6.06685V10.0002C10.459 10.0111 10.4634 10.0215 10.471 10.0292L13.0932 12.6514C13.0932 12.6514 13.0932 12.6514 13.0933 12.6514M10.541 9.98322L13.5858 13.086C13.3298 13.3419 12.9147 13.3419 12.6587 13.086L13.0933 12.6514M10.541 9.98322L10.721 10.1632L13.1512 12.5934C13.1512 12.5934 13.1512 12.5934 13.1512 12.5934C13.1672 12.6094 13.1672 12.6354 13.1512 12.6514M10.541 9.98322L13.1512 12.6514M13.0933 12.6514C13.1093 12.6673 13.1352 12.6673 13.1512 12.6514M13.0933 12.6514L13.1512 12.6514M13.1512 12.6514C13.1512 12.6514 13.1512 12.6514 13.1512 12.6514M13.1512 12.6514L13.1512 12.6514M2.67431 7.41892H2.63334C2.61071 7.41892 2.59237 7.40057 2.59237 7.37795V3.44461C2.59237 3.42199 2.61071 3.40364 2.63334 3.40364C2.65596 3.40364 2.67431 3.42199 2.67431 3.44461V5.8219V7.41892Z" fill="#A9A9A9" stroke="#585858" stroke-width="1.22917"/>
</g>
</svg>
