<svg width="14" height="14" viewBox="0 0 14 14" fill="none" xmlns="http://www.w3.org/2000/svg">
<g id="graph-02">
<path id="union-1" fill-rule="evenodd" clip-rule="evenodd" d="M2.91681 2.33317C2.59464 2.33317 2.33348 2.59434 2.33348 2.9165V11.0832C2.33348 11.4053 2.59464 11.6665 2.91681 11.6665H11.0835C11.4056 11.6665 11.6668 11.4053 11.6668 11.0832V2.9165C11.6668 2.59434 11.4056 2.33317 11.0835 2.33317H2.91681ZM1.16681 2.9165C1.16681 1.95001 1.95031 1.1665 2.91681 1.1665H11.0835C12.05 1.1665 12.8335 1.95001 12.8335 2.9165V11.0832C12.8335 12.0497 12.05 12.8332 11.0835 12.8332H2.91681C1.95031 12.8332 1.16681 12.0497 1.16681 11.0832V2.9165ZM10.3293 4.83736C10.5571 5.06516 10.5571 5.43451 10.3293 5.66232L8.57929 7.41232C8.46989 7.52171 8.32152 7.58317 8.16681 7.58317H6.0751L4.49595 9.16232C4.26815 9.39012 3.8988 9.39012 3.671 9.16232C3.44319 8.93451 3.44319 8.56516 3.671 8.33736L5.421 6.58736C5.53039 6.47796 5.67877 6.4165 5.83348 6.4165H7.92519L9.50433 4.83736C9.73214 4.60955 10.1015 4.60955 10.3293 4.83736Z" fill="#71717A"/>
</g>
</svg>
