<svg width="14" height="14" viewBox="0 0 14 14" fill="none" xmlns="http://www.w3.org/2000/svg">
<g id="pie-chart-02">
<path id="union-1" fill-rule="evenodd" clip-rule="evenodd" d="M6.41657 2.36928C4.11455 2.65633 2.33323 4.62006 2.33323 6.99984C2.33323 9.57717 4.42257 11.6665 6.9999 11.6665C8.07831 11.6665 9.07129 11.3007 9.86152 10.6864L6.58742 7.41232C6.47802 7.30292 6.41657 7.15455 6.41657 6.99984V2.36928ZM7.58323 2.36977V6.12043L11.0387 4.66184C10.8523 4.33988 10.6277 4.04081 10.3695 3.77133C10.3247 3.72457 10.279 3.67874 10.2323 3.63388C10.1085 3.51507 9.97791 3.40274 9.84079 3.29752C9.18115 2.79137 8.40127 2.47283 7.58323 2.36977ZM11.4924 5.73667L8.02522 7.20021L10.6863 9.86131C11.0663 9.37183 11.3462 8.80995 11.5076 8.20766C11.6136 7.81203 11.6666 7.40593 11.6666 6.99984C11.6666 6.59374 11.6136 6.18764 11.5076 5.79201C11.5026 5.77353 11.4975 5.75508 11.4924 5.73667ZM12.8332 6.99984C12.8332 10.2215 10.2216 12.8332 6.9999 12.8332C3.77824 12.8332 1.16656 10.2215 1.16656 6.99984C1.16656 3.77818 3.77824 1.1665 6.9999 1.1665C8.56751 1.1665 9.9907 1.78486 11.0389 2.79096C11.0678 2.81869 11.0964 2.84673 11.1247 2.87505C11.1657 2.91602 11.206 2.95761 11.2458 2.99978C12.23 4.04412 12.8332 5.45153 12.8332 6.99984Z" fill="#09090B"/>
</g>
</svg>
