<svg width="20" height="20" viewBox="0 0 20 20" fill="none" xmlns="http://www.w3.org/2000/svg">
<g id="plus">
<g id="Vector">
<mask id="path-1-inside-1_0_2321" fill="white">
<path fill-rule="evenodd" clip-rule="evenodd" d="M12.6667 5.66667C12.6667 5.29848 12.3682 5 12 5C11.6318 5 11.3333 5.29848 11.3333 5.66667V11.3333H5.66667C5.29848 11.3333 5 11.6318 5 12C5 12.3682 5.29848 12.6667 5.66667 12.6667H11.3333V18.3333C11.3333 18.7015 11.6318 19 12 19C12.3682 19 12.6667 18.7015 12.6667 18.3333V12.6667H18.3333C18.7015 12.6667 19 12.3682 19 12C19 11.6318 18.7015 11.3333 18.3333 11.3333H12.6667V5.66667Z"/>
</mask>
<path fill-rule="evenodd" clip-rule="evenodd" d="M12.6667 5.66667C12.6667 5.29848 12.3682 5 12 5C11.6318 5 11.3333 5.29848 11.3333 5.66667V11.3333H5.66667C5.29848 11.3333 5 11.6318 5 12C5 12.3682 5.29848 12.6667 5.66667 12.6667H11.3333V18.3333C11.3333 18.7015 11.6318 19 12 19C12.3682 19 12.6667 18.7015 12.6667 18.3333V12.6667H18.3333C18.7015 12.6667 19 12.3682 19 12C19 11.6318 18.7015 11.3333 18.3333 11.3333H12.6667V5.66667Z" fill="#030712"/>
<path d="M11.3333 11.3333V13.2083H13.2083V11.3333H11.3333ZM11.3333 12.6667H13.2083V10.7917H11.3333V12.6667ZM12.6667 12.6667V10.7917H10.7917V12.6667H12.6667ZM12.6667 11.3333H10.7917V13.2083H12.6667V11.3333ZM14.5417 5.66667C14.5417 4.26295 13.4037 3.125 12 3.125V6.875C11.3327 6.875 10.7917 6.33401 10.7917 5.66667H14.5417ZM12 3.125C10.5963 3.125 9.45833 4.26295 9.45833 5.66667H13.2083C13.2083 6.33401 12.6673 6.875 12 6.875V3.125ZM9.45833 5.66667V11.3333H13.2083V5.66667H9.45833ZM11.3333 9.45833H5.66667V13.2083H11.3333V9.45833ZM5.66667 9.45833C4.26295 9.45833 3.125 10.5963 3.125 12H6.875C6.875 12.6673 6.33401 13.2083 5.66667 13.2083V9.45833ZM3.125 12C3.125 13.4037 4.26295 14.5417 5.66667 14.5417V10.7917C6.33401 10.7917 6.875 11.3327 6.875 12H3.125ZM5.66667 14.5417H11.3333V10.7917H5.66667V14.5417ZM9.45833 12.6667V18.3333H13.2083V12.6667H9.45833ZM9.45833 18.3333C9.45833 19.7369 10.5962 20.875 12 20.875V17.125C12.6674 17.125 13.2083 17.666 13.2083 18.3333H9.45833ZM12 20.875C13.4038 20.875 14.5417 19.7369 14.5417 18.3333H10.7917C10.7917 17.666 11.3326 17.125 12 17.125V20.875ZM14.5417 18.3333V12.6667H10.7917V18.3333H14.5417ZM12.6667 14.5417H18.3333V10.7917H12.6667V14.5417ZM18.3333 14.5417C19.7369 14.5417 20.875 13.4038 20.875 12H17.125C17.125 11.3326 17.666 10.7917 18.3333 10.7917V14.5417ZM20.875 12C20.875 10.5962 19.7369 9.45833 18.3333 9.45833V13.2083C17.666 13.2083 17.125 12.6674 17.125 12H20.875ZM18.3333 9.45833H12.6667V13.2083H18.3333V9.45833ZM14.5417 11.3333V5.66667H10.7917V11.3333H14.5417Z" fill="#5E5ADB" mask="url(#path-1-inside-1_0_2321)"/>
</g>
</g>
</svg>
